<?xml version="1.0" encoding="utf-8"?>
<!-- Generator: Adobe Illustrator 24.1.0, SVG Export Plug-In . SVG Version: 6.00 Build 0)  -->
<svg version="1.1" id="Layer_1" xmlns="http://www.w3.org/2000/svg" xmlns:xlink="http://www.w3.org/1999/xlink" x="0px" y="0px"
	 viewBox="0 0 955 188" style="enable-background:new 0 0 955 188;" xml:space="preserve">
<style type="text/css">
	.st0{fill:#FFFFFF;}
	.st1{fill:none;stroke:#FFFFFF;stroke-width:3;stroke-linecap:round;stroke-miterlimit:10;}
</style>
<g>
	<path id="Trazado_409" class="st0" d="M104.8,58.55c-0.28-7.64-3.77-14.81-9.61-19.74c-7.29-4.82-15.96-7.1-24.67-6.49
		c-8.04-0.53-16.07,1.27-23.12,5.19c-5.1,3.28-8.06,9.01-7.79,15.07c-0.19,5.13,2.08,10.05,6.11,13.24
		c6.23,4.23,13.26,7.15,20.65,8.57c9.86,2.4,19.25,4.78,28.18,7.14c7.88,1.98,15.57,4.63,22.99,7.93c3.71,1.69,7.27,3.68,10.65,5.98
		c3.3,2.27,6.2,5.08,8.57,8.31c2.55,3.55,4.48,7.5,5.72,11.69c1.47,5.15,2.17,10.5,2.08,15.86c0.22,8.45-1.5,16.84-5.05,24.51
		c-3.31,6.75-8.21,12.59-14.28,17.01c-6.57,4.69-13.98,8.08-21.83,10c-9.04,2.24-18.33,3.33-27.65,3.24
		c-9.89,0.1-19.76-1.07-29.35-3.5c-8.25-2.08-16.01-5.75-22.85-10.81c-6.35-4.76-11.5-10.93-15.07-18.02
		c-3.8-7.9-5.76-16.56-5.72-25.32h34.81c0.06,8.29,4.06,16.05,10.78,20.9c8.14,5.49,17.85,8.18,27.66,7.66
		c8.73,0.55,17.41-1.68,24.8-6.36c5.75-4.16,9.02-10.93,8.69-18.02c0.04-2.39-0.36-4.76-1.17-7.01c-0.9-2.25-2.32-4.25-4.15-5.84
		c-2.43-2.09-5.2-3.76-8.18-4.94c-4.28-1.73-8.71-3.07-13.23-4.02c-10.75-2.43-19.79-4.55-27.14-6.36
		c-6.91-1.66-13.65-3.96-20.13-6.88c-8.43-3.46-15.82-9.05-21.42-16.24c-5.26-7.75-7.86-17-7.4-26.36
		c-0.08-7.32,1.24-14.6,3.89-21.42c2.56-6.44,6.62-12.18,11.82-16.76c5.76-4.95,12.48-8.66,19.74-10.9
		C51.07,3.1,60.4,1.78,69.77,1.95c9.85-0.15,19.67,1.26,29.09,4.17c7.85,2.42,15.14,6.39,21.42,11.68
		c5.73,4.94,10.34,11.05,13.51,17.92c3.26,7.19,5.07,14.96,5.32,22.85L104.8,58.55z"/>
	<path id="Trazado_410" class="st0" d="M216.97,183.46c-9.49,0.16-18.93-1.51-27.78-4.93c-15.83-6.12-28.11-18.97-33.49-35.07
		c-3.02-8.77-4.52-17.99-4.42-27.26c-0.11-9.37,1.42-18.69,4.54-27.54c2.81-7.95,7.28-15.21,13.11-21.3
		c5.83-5.96,12.87-10.6,20.64-13.62c8.74-3.32,18.04-4.95,27.39-4.8c9.23-0.15,18.4,1.48,27.01,4.8
		c15.7,6.07,27.91,18.76,33.37,34.67c3.13,8.92,4.67,18.33,4.55,27.79c0.13,9.41-1.41,18.78-4.55,27.65
		c-2.81,7.88-7.23,15.08-12.97,21.16c-5.77,5.98-12.77,10.63-20.51,13.64c-8.58,3.29-17.7,4.92-26.89,4.79 M216.97,155.15
		c20.61,0,30.91-12.97,30.91-38.92c0-25.8-10.3-38.69-30.91-38.69s-30.9,12.9-30.89,38.69
		C186.08,142.18,196.38,155.15,216.97,155.15"/>
	<rect id="Rectángulo_596" x="294.12" y="5.58" class="st0" width="33.76" height="174.52"/>
	<path id="Trazado_411" class="st0" d="M381.9,180.1L336.19,52.34h37.66l26.75,84.41l27.01-84.41h35.58l-45.97,127.77L381.9,180.1z"
		/>
	<path id="Trazado_412" class="st0" d="M494.35,125.03c0.05,8.45,3.03,16.62,8.44,23.11c5.1,5.71,12.48,8.86,20.13,8.57
		c5.14,0.1,10.21-1.2,14.67-3.77c4.04-2.25,7-6.04,8.19-10.52h34.79c-3.31,12.18-10.63,22.89-20.78,30.39
		c-10.33,7.24-22.71,10.97-35.32,10.65c-42.59,0-63.88-23.2-63.89-69.6c-0.13-9.09,1.28-18.13,4.15-26.75
		c2.56-7.6,6.67-14.59,12.07-20.51c5.37-5.78,11.99-10.26,19.35-13.11c8.38-3.16,17.28-4.71,26.23-4.55
		c17.09-1.14,33.71,5.89,44.79,18.95c10.13,12.64,15.19,31.69,15.19,57.14L494.35,125.03z M547.59,103.73
		c-0.08-4.23-0.92-8.41-2.47-12.34c-1.31-3.32-3.3-6.32-5.84-8.83c-2.37-2.3-5.2-4.07-8.31-5.19c-3.08-1.12-6.33-1.69-9.61-1.69
		c-6.61-0.06-12.96,2.62-17.53,7.4c-5.23,5.62-8.23,12.96-8.44,20.64L547.59,103.73z"/>
	<path id="Trazado_413" class="st0" d="M675.87,180.1v-77.4c0.79-7.04-0.96-14.13-4.93-20c-4.69-3.95-10.79-5.82-16.89-5.19
		c-17.48,0-26.22,9.78-26.22,29.34v73.24h-33.76V52.32h32.21v18.7c3.62-6.89,9.12-12.61,15.86-16.49
		c7.86-4.02,16.63-5.94,25.45-5.59c5.74-0.05,11.45,0.87,16.88,2.72c5.01,1.71,9.58,4.5,13.38,8.19c3.83,3.8,6.84,8.36,8.83,13.38
		c2.27,5.83,3.37,12.05,3.25,18.31v88.55H675.87z"/>
	<path id="Trazado_414" class="st0" d="M797.15,95.95h31.39v36.36c0.03,6.56-0.98,13.09-2.98,19.34
		c-1.94,6.05-5.13,11.63-9.37,16.37c-4.46,4.92-9.96,8.77-16.1,11.3c-7.39,2.93-15.29,4.34-23.24,4.15
		c-8.16,0.21-16.28-1.2-23.9-4.15c-6.17-2.48-11.71-6.3-16.23-11.17c-4.26-4.69-7.41-10.28-9.21-16.36
		c-1.94-6.4-2.92-13.05-2.88-19.74V17.79h33.27v34.53h70.64v23.9H757.9v52.45c-0.4,6.59,1.18,13.15,4.54,18.84
		c3.5,4.64,9.15,7.15,14.94,6.62c5.75,0.46,11.34-1.97,14.93-6.49c3.53-5.48,5.21-11.94,4.81-18.44L797.15,95.95z"/>
	<path id="Trazado_415" class="st0" d="M922.32,180.1c-1.12-3.72-1.82-7.55-2.08-11.43c-4.38,4.79-9.81,8.49-15.86,10.81
		c-7.28,2.81-15.04,4.18-22.85,4.02c-11.62,1-23.19-2.49-32.34-9.73c-6.88-6.59-10.61-15.81-10.26-25.33
		c-0.34-7.57,1.17-15.11,4.43-21.95c2.81-5.32,7.03-9.77,12.2-12.85c5.76-3.33,12.03-5.66,18.57-6.88
		c7.21-1.44,15.04-2.78,23.5-4.02c5.98-0.45,11.8-2.08,17.14-4.8c5.1-4.13,5.88-11.61,1.75-16.71c-0.89-1.1-1.97-2.03-3.19-2.75
		c-4.83-2.56-10.26-3.77-15.71-3.5c-6.05-0.58-12.08,1.29-16.74,5.19c-3.53,3.79-5.76,8.61-6.36,13.76h-31.44
		c0.11-6.19,1.2-12.33,3.25-18.17c1.96-5.49,5.26-10.4,9.61-14.28c5.02-4.31,10.92-7.46,17.3-9.22c8.45-2.34,17.19-3.44,25.95-3.25
		c8.65-0.19,17.27,0.95,25.57,3.37c6.32,1.86,12.11,5.2,16.88,9.75c4.35,4.43,7.52,9.88,9.21,15.86c2,6.96,2.98,14.18,2.88,21.42
		v80.7H922.32z M919.99,117.51c-2.15,1.96-4.73,3.38-7.53,4.14c-4.7,1.38-9.46,2.51-14.28,3.38c-7.12,0.91-13.95,3.4-19.99,7.27
		c-3.73,3.14-5.75,7.86-5.46,12.72c0,9.52,5.46,14.28,16.37,14.28c4.13,0.04,8.23-0.71,12.07-2.21c7.07-2.69,12.83-7.99,16.1-14.81
		c1.64-3.37,2.48-7.07,2.46-10.81L919.99,117.51z"/>
</g>
</svg>
